<svg width="25" height="25" viewBox="0 0 25 25" fill="none" xmlns="http://www.w3.org/2000/svg">
<path fill-rule="evenodd" clip-rule="evenodd" d="M5.36647 5.36599C5.60088 5.13165 5.91877 5 6.25022 5C6.58168 5 6.89956 5.13165 7.13397 5.36599L12.5002 10.7322L17.8665 5.36599C17.9818 5.2466 18.1197 5.15137 18.2722 5.08586C18.4247 5.02035 18.5887 4.98586 18.7547 4.98442C18.9207 4.98298 19.0853 5.01461 19.2389 5.07746C19.3925 5.14031 19.5321 5.23313 19.6495 5.35049C19.7668 5.46786 19.8596 5.60742 19.9225 5.76104C19.9853 5.91466 20.017 6.07926 20.0155 6.24524C20.0141 6.41121 19.9796 6.57524 19.9141 6.72774C19.8486 6.88025 19.7534 7.01818 19.634 7.13348L14.2677 12.4997L19.634 17.866C19.8617 18.1017 19.9877 18.4175 19.9848 18.7452C19.982 19.073 19.8505 19.3865 19.6187 19.6183C19.387 19.85 19.0735 19.9815 18.7457 19.9843C18.418 19.9872 18.1022 19.8612 17.8665 19.6335L12.5002 14.2672L7.13397 19.6335C6.89822 19.8612 6.58247 19.9872 6.25472 19.9843C5.92697 19.9815 5.61346 19.85 5.3817 19.6183C5.14994 19.3865 5.01848 19.073 5.01563 18.7452C5.01278 18.4175 5.13877 18.1017 5.36647 17.866L10.7327 12.4997L5.36647 7.13348C5.13213 6.89908 5.00049 6.58119 5.00049 6.24974C5.00049 5.91828 5.13213 5.6004 5.36647 5.36599Z" fill="#373737"/>
</svg>
