<svg width="29" height="28" viewBox="0 0 29 28" fill="none" xmlns="http://www.w3.org/2000/svg">
<path d="M25.3747 11.8774C25.5162 12.6352 25.5932 13.4276 25.5932 14.2544C25.5932 20.722 21.2646 25.3209 14.7269 25.3209C13.2401 25.3213 11.7678 25.0288 10.3941 24.4601C9.02043 23.8913 7.77227 23.0575 6.72097 22.0062C5.66966 20.9549 4.83581 19.7067 4.26706 18.333C3.6983 16.9593 3.4058 15.4871 3.40625 14.0003C3.4058 12.5135 3.6983 11.0412 4.26706 9.66755C4.83581 8.29386 5.66966 7.04571 6.72097 5.9944C7.77227 4.9431 9.02043 4.10925 10.3941 3.54049C11.7678 2.97174 13.2401 2.67923 14.7269 2.67969C17.7836 2.67969 20.3377 3.80439 22.2973 5.63059L19.1061 8.82184V8.81379C17.9181 7.68219 16.4105 7.10144 14.7269 7.10144C10.9917 7.10144 7.95565 10.257 7.95565 13.9934C7.95565 17.7286 10.9917 20.8911 14.7269 20.8911C18.1159 20.8911 20.4228 18.9533 20.8966 16.2922H14.7269V11.8774H25.3759H25.3747Z" fill="white"/>
</svg>
