<svg width="34" height="34" viewBox="0 0 34 34" fill="none" xmlns="http://www.w3.org/2000/svg">
<path d="M17.0001 4.92578C24.7804 4.92578 31.0876 9.84165 31.0876 15.9073C31.0876 21.9717 24.7804 26.8875 17.0001 26.8875C16.2254 26.8879 15.4514 26.8386 14.683 26.7399L8.76897 30.608C8.0968 30.9635 7.85932 30.9246 8.13571 30.0539L9.33247 25.1192C5.46847 23.1604 2.9126 19.766 2.9126 15.9073C2.9126 9.84299 9.21977 4.92578 17.0001 4.92578ZM24.9253 15.7396L26.8976 13.8291C27.0114 13.7109 27.0749 13.5531 27.0747 13.3891C27.0745 13.225 27.0106 13.0674 26.8965 12.9495C26.7824 12.8316 26.627 12.7626 26.463 12.7569C26.2991 12.7513 26.1393 12.8096 26.0174 12.9194L23.4307 15.423V13.3541C23.4307 13.1862 23.364 13.0251 23.2452 12.9063C23.1265 12.7876 22.9654 12.7209 22.7974 12.7209C22.6295 12.7209 22.4684 12.7876 22.3497 12.9063C22.2309 13.0251 22.1642 13.1862 22.1642 13.3541V16.7848C22.1404 16.8826 22.1404 16.9848 22.1642 17.0826V19.0133C22.1642 19.1812 22.2309 19.3423 22.3497 19.4611C22.4684 19.5798 22.6295 19.6466 22.7974 19.6466C22.9654 19.6466 23.1265 19.5798 23.2452 19.4611C23.364 19.3423 23.4307 19.1812 23.4307 19.0133V17.1846L24.0036 16.6305L25.9195 19.3581C25.9673 19.4262 26.0281 19.4842 26.0984 19.5288C26.1686 19.5734 26.247 19.6037 26.3289 19.6181C26.4109 19.6324 26.4949 19.6304 26.5761 19.6123C26.6574 19.5942 26.7342 19.5602 26.8023 19.5124C26.8704 19.4645 26.9284 19.4038 26.973 19.3335C27.0176 19.2633 27.048 19.1849 27.0623 19.1029C27.0766 19.021 27.0747 18.937 27.0565 18.8557C27.0384 18.7745 27.0044 18.6977 26.9566 18.6296L24.9253 15.7383V15.7396ZM20.9567 18.321H18.9978V13.3743C18.9903 13.2115 18.9204 13.0579 18.8026 12.9454C18.6848 12.8329 18.5282 12.7701 18.3652 12.7701C18.2023 12.7701 18.0457 12.8329 17.9279 12.9454C17.8101 13.0579 17.7401 13.2115 17.7326 13.3743V18.9543C17.7326 19.3031 18.0144 19.5875 18.3646 19.5875H20.9567C21.1246 19.5875 21.2857 19.5208 21.4045 19.402C21.5232 19.2833 21.5899 19.1222 21.5899 18.9543C21.5899 18.7863 21.5232 18.6252 21.4045 18.5065C21.2857 18.3877 21.1246 18.321 20.9567 18.321ZM13.0985 16.8559L14.0323 14.5657L14.8883 16.8559H13.0985ZM16.4836 17.5106L16.4862 17.4892C16.4859 17.3296 16.425 17.1762 16.3158 17.0598L14.9125 13.3031C14.8536 13.1241 14.7416 12.9673 14.5913 12.8537C14.4409 12.74 14.2595 12.675 14.0712 12.6672C13.8816 12.6664 13.6962 12.7233 13.5397 12.8304C13.3832 12.9376 13.263 13.0898 13.1951 13.2669L10.9666 18.7342C10.9352 18.8112 10.9192 18.8936 10.9196 18.9768C10.92 19.06 10.9368 19.1423 10.969 19.2189C11.0012 19.2956 11.0482 19.3652 11.1073 19.4237C11.1664 19.4823 11.2364 19.5286 11.3134 19.56C11.3904 19.5915 11.4729 19.6074 11.556 19.607C11.6392 19.6066 11.7215 19.5898 11.7982 19.5576C11.8749 19.5254 11.9444 19.4784 12.003 19.4193C12.0615 19.3602 12.1078 19.2902 12.1392 19.2132L12.582 18.1224H15.3592L15.7604 19.1957C15.7877 19.276 15.8308 19.3499 15.8871 19.4132C15.9435 19.4765 16.012 19.5278 16.0886 19.5641C16.1651 19.6004 16.2482 19.621 16.3329 19.6246C16.4175 19.6282 16.5021 19.6148 16.5814 19.5852C16.6608 19.5556 16.7335 19.5103 16.795 19.4521C16.8566 19.3939 16.9059 19.3239 16.9399 19.2463C16.9739 19.1687 16.9921 19.085 16.9932 19.0003C16.9943 18.9156 16.9784 18.8315 16.9464 18.753L16.4836 17.5106ZM12.0265 13.381C12.0265 13.2132 11.96 13.0524 11.8415 12.9337C11.7231 12.8149 11.5623 12.7481 11.3946 12.7477H7.04091C6.87295 12.7477 6.71188 12.8144 6.59312 12.9332C6.47436 13.0519 6.40764 13.213 6.40764 13.381C6.40764 13.5489 6.47436 13.71 6.59312 13.8288C6.71188 13.9475 6.87295 14.0142 7.04091 14.0142H8.59724V19.0267C8.59724 19.1947 8.66396 19.3557 8.78272 19.4745C8.90148 19.5932 9.06255 19.66 9.23051 19.66C9.39846 19.66 9.55953 19.5932 9.67829 19.4745C9.79705 19.3557 9.86377 19.1947 9.86377 19.0267V14.0142H11.3933C11.5612 14.0142 11.7223 13.9475 11.8411 13.8288C11.9598 13.71 12.0265 13.5489 12.0265 13.381Z" fill="black"/>
</svg>
