<svg width="20" height="23" viewBox="0 0 20 23" fill="none" xmlns="http://www.w3.org/2000/svg">
<path d="M18.3337 9.95329L2.20871 0.600788C1.99117 0.483877 1.75188 0.431935 1.51263 0.449692C1.27337 0.467449 1.04174 0.55434 0.838818 0.702456C0.6359 0.850572 0.468141 1.05521 0.350811 1.29774C0.233482 1.54027 0.170308 1.81298 0.167041 2.09107V20.788C0.165009 21.0735 0.226492 21.3547 0.345547 21.6045C0.464602 21.8544 0.637202 22.0643 0.846665 22.2142C1.05613 22.364 1.29537 22.4486 1.54127 22.4599C1.78717 22.4711 2.0314 22.4086 2.25037 22.2783L18.3337 12.9258C18.5719 12.7871 18.7722 12.5742 18.9122 12.311C19.0522 12.0479 19.1263 11.7447 19.1263 11.4355C19.1263 11.1263 19.0522 10.8231 18.9122 10.56C18.7722 10.2968 18.5719 10.084 18.3337 9.94523V9.95329Z" fill="white"/>
</svg>
