<svg width="26" height="26" viewBox="0 0 26 26" fill="none" xmlns="http://www.w3.org/2000/svg">
<g clip-path="url(#clip0_155_549)">
<path d="M24.8945 6.57296C24.7468 6.04511 24.4653 5.56432 24.0773 5.17716C23.6893 4.79 23.208 4.50958 22.6798 4.36306C20.6971 3.83303 12.7269 3.83303 12.7269 3.83303C12.7269 3.83303 4.77171 3.82032 2.76841 4.36306C2.24109 4.51023 1.76064 4.79094 1.37352 5.17807C0.986394 5.56519 0.705681 6.04564 0.558513 6.57296C0.182011 8.60265 -0.00342187 10.6632 0.0046469 12.7275C0.000973188 14.7818 0.186377 16.8322 0.558513 18.8526C0.706157 19.3802 0.986953 19.861 1.37394 20.2488C1.76093 20.6366 2.24112 20.9185 2.76841 21.0672C4.75105 21.5973 12.7269 21.5973 12.7269 21.5973C12.7269 21.5973 20.6773 21.5973 22.6798 21.0672C23.2079 20.9191 23.6891 20.6376 24.0769 20.2497C24.4648 19.8618 24.7463 19.3807 24.8945 18.8526C25.2592 16.8334 25.4372 14.78 25.4245 12.7275C25.4372 10.6614 25.2632 8.60486 24.8945 6.57296ZM10.1808 16.5314V8.90683L16.8153 12.7275L10.1808 16.5314Z" fill="white"/>
</g>
<defs>
<clipPath id="clip0_155_549">
<rect width="25.4286" height="25.4286" fill="white"/>
</clipPath>
</defs>
</svg>
